<svg width="111" height="124" viewBox="0 0 111 124" fill="none" xmlns="http://www.w3.org/2000/svg">
<path d="M43.1377 62.2897H69.923C72.3747 62.2897 74.7336 63.2608 76.4671 64.9943L107.68 96.2072C109.413 97.9407 110.385 100.3 110.385 102.751V122.716H86.9536V85.7207H24.0601V122.716H0.62917V102.751C0.62917 100.3 1.6003 97.9407 3.33372 96.2072L33.1023 66.4385C35.7741 63.7786 39.3795 62.2897 43.1377 62.2897ZM24.0474 0.616449V38.485L59.2104 3.32198C60.9439 1.58851 63.3029 0.616508 65.7546 0.616449H110.385V24.0474H76.2372V24.0797C73.6837 24.2297 71.2577 25.3066 69.4376 27.1267L40.9009 55.6624C38.2423 58.321 34.6385 59.8102 30.8675 59.8103H9.86612C4.75587 59.8103 0.616449 55.6718 0.616449 50.5616V0.616449H24.0474Z" stroke="#FAF5EA" stroke-width="1.23078"/>
</svg>
